<svg xmlns="http://www.w3.org/2000/svg" version="1.1" xmlns:xlink="http://www.w3.org/1999/xlink" xmlns:svgjs="http://svgjs.dev/svgjs" width="1000" height="1000" viewBox="0 0 1000 1000"><rect width="1000" height="1000" fill="#000000"></rect><g transform="matrix(0.7,0,0,0.7,150.49170735088956,199.24417476320582)"><svg viewBox="0 0 287 247" data-background-color="#ffffff" preserveAspectRatio="xMidYMid meet" height="860" width="1000" xmlns="http://www.w3.org/2000/svg" xmlns:xlink="http://www.w3.org/1999/xlink"><g id="tight-bounds" transform="matrix(1,0,0,1,-0.20160001386472004,-0.09997365579206985)"><svg viewBox="0 0 287.4031605992509 247.2" height="247.2" width="287.4031605992509"><g><svg viewBox="0 0 287.4031605992509 247.2" height="247.2" width="287.4031605992509"><g><svg viewBox="0 0 287.4031605992509 247.2" height="247.2" width="287.4031605992509"><g id="textblocktransform"><svg viewBox="0 0 287.4031605992509 247.2" height="247.2" width="287.4031605992509" id="textblock"><g><svg viewBox="0 0 287.4031605992509 247.2" height="247.2" width="287.4031605992509"><path d="M286.73 53.02C285.379 27.36 281.528 20.227 281.528 20.227 269.706-6.202 254.951-0.506 241.697 3.292 218.295 3.446 194.988 9.091 171.64 12.119 122.634 12.581 73.209 4.986 24.446 23.717 19.866 29.464-4.752 24.846 0.815 56.304 2.274 69.39 7.597 83.913 7.435 95.922 8.165 98.026 9.178 93.202 9.611 96.23 11.124 104.39 13.597 100.541 15.623 105.365 12.799 118.246 14.826 128.971 16.758 140.21 13.353 143.135 8.989 141.749 7.03 151.449 6.827 158.479 5.733 157.145 4.53 156.837 3.652 156.632 1.882 157.402 2.179 159.608 3.193 167.152-1.158 171.514 1.571 178.904-0.307 186.91 2.868 193.838 2.436 202.511 2.382 204.255 2.679 205.744 3.152 206.154 5.246 208.361 2.193 212.672 2.517 217.342 24 249.262 47.308 227.195 69.318 241.872 75.033 231.608 70.736 245.516 73.02 243.36 74.803 240.846 76.1 251.263 78.114 245.362 78.424 243.668 77.952 239.665 79.059 240.435 79.64 240.846 80.154 240.743 80.235 238.382 80.357 234.841 79.289 237.048 79.005 235.201 82.073 225.861 81.316 248.081 84.194 247.158 84.059 244.438 83.221 240.538 84.937 241.051 86.639 237.151 86.693 233.918 88.207 242.693 88.261 244.592 88.531 245.926 88.963 246.85 93.692 237.305 98.394 250.237 103.353 245.926 106.393 241.205 109.312 248.492 112.392 246.696 113.473 245.259 114.568 242.693 115.608 247.004 128.349 247.928 141.928 244.079 154.007 247.158 186.286 241.41 220.781 249.518 254.816 241.923 262.842 238.998 271.179 234.841 279.002 231.506 279.002 231.506 285.339 222.371 285.339 181.316S286.69 145.393 286.892 112.703C287.095 80.013 288.041 78.679 286.69 53.02Z" opacity="1" fill="#ffffff" data-fill-palette-color="tertiary"></path><g transform="matrix(1,0,0,1,55.76831999999999,26.230666666666668)"><svg width="175.86652059925092" viewBox="2.15 -35 32.15 35.6" height="194.73866666666666" data-palette-color="#ffffff"><path d="M18.15-35Q24.75-35 29-32.33 33.25-29.65 33.35-24.4L33.35-24.4 33.35-23.8 23-23.8 23-24Q23-25.5 21.9-26.5 20.8-27.5 18.55-27.5L18.55-27.5Q16.35-27.5 15.18-26.85 14-26.2 14-25.25L14-25.25Q14-23.9 15.6-23.25 17.2-22.6 20.75-21.9L20.75-21.9Q24.9-21.05 27.58-20.13 30.25-19.2 32.25-17.1 34.25-15 34.3-11.4L34.3-11.4Q34.3-5.3 30.18-2.35 26.05 0.6 19.15 0.6L19.15 0.6Q11.1 0.6 6.63-2.1 2.15-4.8 2.15-11.65L2.15-11.65 12.6-11.65Q12.6-9.05 13.95-8.18 15.3-7.3 18.15-7.3L18.15-7.3Q20.25-7.3 21.63-7.75 23-8.2 23-9.6L23-9.6Q23-10.85 21.48-11.48 19.95-12.1 16.5-12.8L16.5-12.8Q12.3-13.7 9.55-14.68 6.8-15.65 4.75-17.9 2.7-20.15 2.7-24L2.7-24Q2.7-29.65 7.08-32.33 11.45-35 18.15-35L18.15-35Z" opacity="1" transform="matrix(1,0,0,1,0,0)" fill="#000000" class="wordmark-text-0" data-fill-palette-color="quaternary" id="text-0"></path></svg></g></svg></g></svg></g></svg></g><g></g></svg></g><defs></defs></svg><rect width="287.4031605992509" height="247.2" fill="none" stroke="none" visibility="hidden"></rect></g></svg></g></svg>